<svg xmlns="http://www.w3.org/2000/svg" width="1200" height="320" viewBox="0 0 1200 320"><rect width="1200" height="320" fill="#0d1117"/><rect x="30" y="24" width="300" height="272" fill="#161b22" rx="10" stroke="#30363d" stroke-width="1"/><text x="180" y="48" font-family="monospace" font-size="13" fill="#e6edf3" text-anchor="middle" font-weight="bold">Live Calls</text><circle cx="50" cy="82" r="4" fill="#3fb950"/><text x="62" y="86" font-family="monospace" font-size="11" fill="#e6edf3">+1 555 201-4487</text><text x="62" y="100" font-family="monospace" font-size="9" fill="#3fb950">AI Active 02:14</text><circle cx="50" cy="124" r="4" fill="#3fb950"/><text x="62" y="128" font-family="monospace" font-size="11" fill="#e6edf3">+1 555 843-2291</text><text x="62" y="142" font-family="monospace" font-size="9" fill="#3fb950">AI Active 01:07</text><circle cx="50" cy="166" r="4" fill="#f85149"/><text x="62" y="170" font-family="monospace" font-size="11" fill="#e6edf3">+1 555 601-3847</text><text x="62" y="184" font-family="monospace" font-size="9" fill="#f85149">AMD Kill</text><circle cx="50" cy="208" r="4" fill="#d29922"/><text x="62" y="212" font-family="monospace" font-size="11" fill="#e6edf3">+1 555 118-4420</text><text x="62" y="226" font-family="monospace" font-size="9" fill="#d29922">Dialing...</text><circle cx="50" cy="250" r="4" fill="#3fb950"/><text x="62" y="254" font-family="monospace" font-size="11" fill="#e6edf3">+1 555 774-9923</text><text x="62" y="268" font-family="monospace" font-size="9" fill="#3fb950">AI Active 03:52</text><text x="600" y="76" font-family="monospace" font-size="27" fill="#e6edf3" text-anchor="middle" font-weight="bold">ViciDial + AVR + VAPI</text><text x="600" y="106" font-family="monospace" font-size="15" fill="#8b949e" text-anchor="middle">Production AI Outbound Calling Pipeline</text><text x="600" y="128" font-family="monospace" font-size="13" fill="#58a6ff" text-anchor="middle">~930ms answer to first AI word</text><rect x="418" y="154" width="170" height="17" fill="#58a6ff" rx="8"/><text x="426" y="165" font-family="monospace" font-size="10" fill="#fff" font-weight="bold">VAPI AI Voice Agent</text><rect x="635" y="154" width="140" height="17" fill="#bc8cff" rx="8"/><text x="643" y="165" font-family="monospace" font-size="10" fill="#fff" font-weight="bold">Groq LLM 280ms</text><rect x="418" y="186" width="155" height="17" fill="#3fb950" rx="8"/><text x="426" y="197" font-family="monospace" font-size="10" fill="#fff" font-weight="bold">AMD Filters Machines</text><rect x="635" y="186" width="195" height="17" fill="#d29922" rx="8"/><text x="643" y="197" font-family="monospace" font-size="10" fill="#fff" font-weight="bold">ViciDial Auto-Disposition</text><text x="600" y="250" font-family="monospace" font-size="11" fill="#8b949e" text-anchor="middle">AlmaLinux 8  Docker AVR Stack  Python AGI  Asterisk 18</text><rect x="870" y="24" width="300" height="272" fill="#161b22" rx="10" stroke="#30363d" stroke-width="1"/><text x="1020" y="48" font-family="monospace" font-size="13" fill="#e6edf3" text-anchor="middle" font-weight="bold">Latency Map</text><text x="882" y="82" font-family="monospace" font-size="10" fill="#8b949e">STT</text><rect x="882" y="88" width="80" height="14" fill="#58a6ff44" rx="4"/><text x="968" y="100" font-family="monospace" font-size="11" fill="#58a6ff" font-weight="bold">~120ms</text><text x="882" y="128" font-family="monospace" font-size="10" fill="#8b949e">LLM Groq</text><rect x="882" y="134" width="190" height="14" fill="#bc8cff44" rx="4"/><text x="1078" y="146" font-family="monospace" font-size="11" fill="#bc8cff" font-weight="bold">~280ms</text><text x="882" y="174" font-family="monospace" font-size="10" fill="#8b949e">TTS</text><rect x="882" y="180" width="135" height="14" fill="#3fb95044" rx="4"/><text x="1023" y="192" font-family="monospace" font-size="11" fill="#3fb950" font-weight="bold">~200ms</text><text x="882" y="220" font-family="monospace" font-size="10" fill="#8b949e">Network</text><rect x="882" y="226" width="50" height="14" fill="#8b949e44" rx="4"/><text x="938" y="238" font-family="monospace" font-size="11" fill="#8b949e" font-weight="bold">~330ms</text><rect x="882" y="260" width="286" height="26" fill="#0d1117" rx="6" stroke="#58a6ff" stroke-width="1"/><text x="1025" y="276" font-family="monospace" font-size="13" fill="#58a6ff" text-anchor="middle" font-weight="bold">Total: ~930ms</text></svg>