<svg xmlns="http://www.w3.org/2000/svg" width="900" height="520" viewBox="0 0 900 520"><rect width="900" height="520" fill="#1c2128" rx="8"/><rect width="900" height="38" fill="#21262d" rx="8"/><circle cx="28" cy="19" r="5" fill="#f85149"/><circle cx="46" cy="19" r="5" fill="#d29922"/><circle cx="64" cy="19" r="5" fill="#3fb950"/><rect x="220" y="7" width="460" height="24" fill="#0d1117" rx="12" stroke="#30363d" stroke-width="1"/><text x="450" y="23" font-family="monospace" font-size="11" fill="#8b949e" text-anchor="middle">localhost:3000 -- ACS Admin Panel</text><rect width="170" height="482" y="38" fill="#161b22" stroke="#30363d" stroke-width="1"/><text x="16" y="66" font-family="monospace" font-size="14" fill="#58a6ff" font-weight="bold">ACS</text><text x="16" y="84" font-family="monospace" font-size="9" fill="#8b949e">AI Calling System</text><rect y="98" width="170" height="32" fill="#1f6feb22" stroke="#1f6feb" stroke-width="1"/><text x="16" y="118" font-family="monospace" font-size="12" fill="#58a6ff" font-weight="bold">Overview</text><text x="16" y="156" font-family="monospace" font-size="12" fill="#8b949e">Live Calls</text><text x="16" y="194" font-family="monospace" font-size="12" fill="#8b949e">Campaigns</text><text x="16" y="232" font-family="monospace" font-size="12" fill="#8b949e">Leads</text><text x="16" y="270" font-family="monospace" font-size="12" fill="#8b949e">Recordings</text><text x="16" y="308" font-family="monospace" font-size="12" fill="#8b949e">Settings</text><rect x="182" y="48" width="165" height="80" fill="#1f6feb22" rx="8" stroke="#58a6ff" stroke-width="1"/><text x="194" y="70" font-family="monospace" font-size="10" fill="#8b949e">Active Calls</text><text x="194" y="96" font-family="monospace" font-size="21" fill="#e6edf3" font-weight="bold">12</text><text x="194" y="113" font-family="monospace" font-size="9" fill="#8b949e">3 up from last hour</text><rect x="359" y="48" width="165" height="80" fill="#3fb95022" rx="8" stroke="#3fb950" stroke-width="1"/><text x="371" y="70" font-family="monospace" font-size="10" fill="#8b949e">Answered Today</text><text x="371" y="96" font-family="monospace" font-size="21" fill="#e6edf3" font-weight="bold">847</text><text x="371" y="113" font-family="monospace" font-size="9" fill="#8b949e">AMD filtered 312 machines</text><rect x="536" y="48" width="165" height="80" fill="#1f6feb22" rx="8" stroke="#bc8cff" stroke-width="1"/><text x="548" y="70" font-family="monospace" font-size="10" fill="#8b949e">Avg Latency</text><text x="548" y="96" font-family="monospace" font-size="21" fill="#e6edf3" font-weight="bold">930ms</text><text x="548" y="113" font-family="monospace" font-size="9" fill="#8b949e">Answer to first AI word</text><rect x="713" y="48" width="165" height="80" fill="#1f6feb22" rx="8" stroke="#d29922" stroke-width="1"/><text x="725" y="70" font-family="monospace" font-size="10" fill="#8b949e">Dispositioned</text><text x="725" y="96" font-family="monospace" font-size="21" fill="#e6edf3" font-weight="bold">523</text><text x="725" y="113" font-family="monospace" font-size="9" fill="#8b949e">SCHDL:89 NI:201 DROP:233</text><rect x="182" y="140" width="706" height="28" fill="#161b22" rx="4"/><text x="194" y="157" font-family="monospace" font-size="10" fill="#8b949e" font-weight="bold">Phone</text><text x="330" y="157" font-family="monospace" font-size="10" fill="#8b949e" font-weight="bold">Status</text><text x="430" y="157" font-family="monospace" font-size="10" fill="#8b949e" font-weight="bold">Dur</text><text x="500" y="157" font-family="monospace" font-size="10" fill="#8b949e" font-weight="bold">Disposition</text><text x="650" y="157" font-family="monospace" font-size="10" fill="#8b949e" font-weight="bold">AMD</text><rect x="182" y="170" width="706" height="34" fill="#0d1117"/><circle cx="194" cy="183" r="4" fill="#3fb950"/><text x="204" y="188" font-family="monospace" font-size="11" fill="#e6edf3">+1 (555) 201-4487</text><text x="330" y="188" font-family="monospace" font-size="11" fill="#3fb950">AI Active</text><text x="430" y="188" font-family="monospace" font-size="11" fill="#8b949e">02:14</text><text x="500" y="188" font-family="monospace" font-size="11" fill="#58a6ff">In Progress</text><text x="650" y="188" font-family="monospace" font-size="10" fill="#3fb950" font-weight="bold">HUMAN</text><circle cx="194" cy="219" r="4" fill="#3fb950"/><text x="204" y="224" font-family="monospace" font-size="11" fill="#e6edf3">+1 (555) 843-2291</text><text x="330" y="224" font-family="monospace" font-size="11" fill="#3fb950">AI Active</text><text x="430" y="224" font-family="monospace" font-size="11" fill="#8b949e">01:07</text><text x="500" y="224" font-family="monospace" font-size="11" fill="#58a6ff">In Progress</text><text x="650" y="224" font-family="monospace" font-size="10" fill="#3fb950" font-weight="bold">HUMAN</text><rect x="182" y="242" width="706" height="34" fill="#0d1117"/><circle cx="194" cy="255" r="4" fill="#f85149"/><text x="204" y="260" font-family="monospace" font-size="11" fill="#e6edf3">+1 (555) 601-3847</text><text x="330" y="260" font-family="monospace" font-size="11" fill="#f85149">AMD Kill</text><text x="430" y="260" font-family="monospace" font-size="11" fill="#8b949e">00:04</text><text x="500" y="260" font-family="monospace" font-size="11" fill="#f85149">MACHINE</text><text x="650" y="260" font-family="monospace" font-size="10" fill="#f85149" font-weight="bold">MACHINE</text><circle cx="194" cy="291" r="4" fill="#8b949e"/><text x="204" y="296" font-family="monospace" font-size="11" fill="#e6edf3">+1 (555) 118-4420</text><text x="330" y="296" font-family="monospace" font-size="11" fill="#d29922">Dialing</text><text x="430" y="296" font-family="monospace" font-size="11" fill="#8b949e">00:01</text><text x="500" y="296" font-family="monospace" font-size="11" fill="#8b949e">--</text><text x="650" y="296" font-family="monospace" font-size="10" fill="#8b949e" font-weight="bold">--</text><rect x="182" y="314" width="706" height="34" fill="#0d1117"/><circle cx="194" cy="327" r="4" fill="#3fb950"/><text x="204" y="332" font-family="monospace" font-size="11" fill="#e6edf3">+1 (555) 774-9923</text><text x="330" y="332" font-family="monospace" font-size="11" fill="#3fb950">AI Active</text><text x="430" y="332" font-family="monospace" font-size="11" fill="#8b949e">03:52</text><text x="500" y="332" font-family="monospace" font-size="11" fill="#58a6ff">In Progress</text><text x="650" y="332" font-family="monospace" font-size="10" fill="#3fb950" font-weight="bold">HUMAN</text><circle cx="194" cy="363" r="4" fill="#3fb950"/><text x="204" y="368" font-family="monospace" font-size="11" fill="#e6edf3">+1 (555) 334-6612</text><text x="330" y="368" font-family="monospace" font-size="11" fill="#8b949e">Completed</text><text x="430" y="368" font-family="monospace" font-size="11" fill="#8b949e">04:21</text><text x="500" y="368" font-family="monospace" font-size="11" fill="#3fb950">SCHDL</text><text x="650" y="368" font-family="monospace" font-size="10" fill="#3fb950" font-weight="bold">HUMAN</text><rect x="182" y="406" width="706" height="36" fill="#0d1117" rx="4" stroke="#30363d" stroke-width="1"/><circle cx="194" cy="424" r="4" fill="#3fb950"/><text x="206" y="428" font-family="monospace" font-size="10" fill="#8b949e">AI Outbound v2  Rate: 3/min  Concurrent: 12  Leads remaining: 2,441</text><rect x="790" y="413" width="56" height="17" fill="#3fb950" rx="8"/><text x="798" y="424" font-family="monospace" font-size="10" fill="#fff" font-weight="bold">Live</text></svg>