<svg xmlns="http://www.w3.org/2000/svg" width="900" height="520" viewBox="0 0 900 520"><rect width="900" height="520" fill="#0d1117" rx="8"/><text x="450" y="34" font-family="monospace" font-size="15" fill="#e6edf3" text-anchor="middle" font-weight="bold">Call Flow: AMD Decision + VAPI Bridge</text><text x="450" y="54" font-family="monospace" font-size="11" fill="#8b949e" text-anchor="middle">~930ms answer to first AI word  Groq GPT-OSS-20B</text><rect x="38" y="90" width="124" height="58" fill="#161b22" rx="8" stroke="#58a6ff" stroke-width="2"/><text x="100" y="112" font-family="monospace" font-size="12" fill="#e6edf3" text-anchor="middle" font-weight="bold">Campaign</text><text x="100" y="128" font-family="monospace" font-size="12" fill="#e6edf3" text-anchor="middle" font-weight="bold">Runner</text><text x="100" y="156" font-family="monospace" font-size="9" fill="#8b949e" text-anchor="middle">ai_campaign_runner.py</text><rect x="218" y="90" width="124" height="58" fill="#161b22" rx="8" stroke="#bc8cff" stroke-width="2"/><text x="280" y="112" font-family="monospace" font-size="12" fill="#e6edf3" text-anchor="middle" font-weight="bold">Asterisk</text><text x="280" y="128" font-family="monospace" font-size="12" fill="#e6edf3" text-anchor="middle" font-weight="bold">AMI</text><text x="280" y="156" font-family="monospace" font-size="9" fill="#8b949e" text-anchor="middle">Originate SIP</text><rect x="398" y="90" width="124" height="58" fill="#161b22" rx="8" stroke="#d29922" stroke-width="2"/><text x="460" y="112" font-family="monospace" font-size="12" fill="#e6edf3" text-anchor="middle" font-weight="bold">Lead</text><text x="460" y="128" font-family="monospace" font-size="12" fill="#e6edf3" text-anchor="middle" font-weight="bold">Answers</text><text x="460" y="156" font-family="monospace" font-size="9" fill="#8b949e" text-anchor="middle">MixMonitor</text><rect x="398" y="270" width="124" height="58" fill="#161b22" rx="8" stroke="#d29922" stroke-width="2"/><text x="460" y="292" font-family="monospace" font-size="12" fill="#e6edf3" text-anchor="middle" font-weight="bold">AMD</text><text x="460" y="308" font-family="monospace" font-size="12" fill="#e6edf3" text-anchor="middle" font-weight="bold">Check</text><text x="460" y="336" font-family="monospace" font-size="9" fill="#8b949e" text-anchor="middle">precheck_amd.py</text><rect x="618" y="170" width="124" height="58" fill="#161b22" rx="8" stroke="#f85149" stroke-width="2"/><text x="680" y="192" font-family="monospace" font-size="12" fill="#e6edf3" text-anchor="middle" font-weight="bold">MACHINE</text><text x="680" y="208" font-family="monospace" font-size="12" fill="#e6edf3" text-anchor="middle" font-weight="bold">Detected</text><text x="680" y="236" font-family="monospace" font-size="9" fill="#8b949e" text-anchor="middle">Hang + status A</text><rect x="618" y="330" width="124" height="58" fill="#161b22" rx="8" stroke="#3fb950" stroke-width="2"/><text x="680" y="352" font-family="monospace" font-size="12" fill="#e6edf3" text-anchor="middle" font-weight="bold">AVR</text><text x="680" y="368" font-family="monospace" font-size="12" fill="#e6edf3" text-anchor="middle" font-weight="bold">Bridge</text><text x="680" y="396" font-family="monospace" font-size="9" fill="#8b949e" text-anchor="middle">AudioSocket</text><rect x="618" y="430" width="124" height="58" fill="#161b22" rx="8" stroke="#58a6ff" stroke-width="2"/><text x="680" y="452" font-family="monospace" font-size="12" fill="#e6edf3" text-anchor="middle" font-weight="bold">VAPI</text><text x="680" y="468" font-family="monospace" font-size="12" fill="#e6edf3" text-anchor="middle" font-weight="bold">Agent</text><text x="680" y="496" font-family="monospace" font-size="9" fill="#8b949e" text-anchor="middle">STT+LLM+TTS</text><rect x="218" y="430" width="124" height="58" fill="#161b22" rx="8" stroke="#3fb950" stroke-width="2"/><text x="280" y="452" font-family="monospace" font-size="12" fill="#e6edf3" text-anchor="middle" font-weight="bold">Disposition</text><text x="280" y="468" font-family="monospace" font-size="12" fill="#e6edf3" text-anchor="middle" font-weight="bold">AGI</text><text x="280" y="496" font-family="monospace" font-size="9" fill="#8b949e" text-anchor="middle">writes to ViciDial</text><line x1="162" y1="119" x2="218" y2="119" stroke="#58a6ff" stroke-width="1.5"/><polygon points="0,-5 -4,4 4,4" fill="#58a6ff" transform="translate(218,119) rotate(0)"/><line x1="342" y1="119" x2="398" y2="119" stroke="#bc8cff" stroke-width="1.5"/><polygon points="0,-5 -4,4 4,4" fill="#bc8cff" transform="translate(398,119) rotate(0)"/><line x1="460" y1="148" x2="460" y2="270" stroke="#d29922" stroke-width="1.5"/><polygon points="0,-5 -4,4 4,4" fill="#d29922" transform="translate(460,270) rotate(90)"/><line x1="522" y1="280" x2="618" y2="218" stroke="#f85149" stroke-width="1.5"/><polygon points="0,-5 -4,4 4,4" fill="#f85149" transform="translate(614,222) rotate(-56)"/><text x="546" y="244" font-family="monospace" font-size="9" fill="#f85149">MACHINE</text><line x1="522" y1="316" x2="618" y2="350" stroke="#3fb950" stroke-width="1.5"/><polygon points="0,-5 -4,4 4,4" fill="#3fb950" transform="translate(614,348) rotate(34)"/><text x="540" y="346" font-family="monospace" font-size="9" fill="#3fb950">HUMAN</text><line x1="680" y1="388" x2="680" y2="430" stroke="#3fb950" stroke-width="1.5"/><polygon points="0,-5 -4,4 4,4" fill="#3fb950" transform="translate(680,430) rotate(90)"/><line x1="618" y1="459" x2="342" y2="459" stroke="#3fb950" stroke-width="1.5"/><polygon points="0,-5 -4,4 4,4" fill="#3fb950" transform="translate(342,459) rotate(180)"/><line x1="280" y1="430" x2="280" y2="360" stroke="#8b949e" stroke-width="1.5"/><text x="288" y="400" font-family="monospace" font-size="9" fill="#8b949e">writes back</text><rect x="20" y="456" width="260" height="50" fill="#0d1117" rx="6" stroke="#30363d" stroke-width="1"/><text x="30" y="472" font-family="monospace" font-size="10" fill="#8b949e">STT 120ms  LLM 280ms  TTS 200ms</text><text x="30" y="488" font-family="monospace" font-size="10" fill="#3fb950">Groq saves 520ms vs Haiku</text><text x="30" y="499" font-family="monospace" font-size="10" fill="#58a6ff" font-weight="bold">Total: ~930ms</text></svg>